<svg width="327" height="144" viewBox="0 0 327 144" fill="none" xmlns="http://www.w3.org/2000/svg">
<path d="M103.744 22.651C107.426 22.651 107.425 18.938 106.997 17.86C106.708 17.131 99.6972 0 80.7632 0C73.6002 0 66.6092 2.636 59.9632 7.825H3.46923C2.90389 7.84081 2.35039 7.99076 1.85437 8.26247C1.35835 8.53418 0.934 8.91988 0.616302 9.38778C0.298605 9.85568 0.0966543 10.3924 0.0270962 10.9537C-0.042462 11.5149 0.022364 12.0847 0.216231 12.616C0.433231 13.369 7.51623 30.476 26.4502 30.476C32.0433 30.422 37.5268 28.9184 42.3652 26.112V37.312H35.0472C34.119 37.312 33.2287 37.6808 32.5724 38.3371C31.916 38.9935 31.5472 39.8837 31.5472 40.812V48.112C31.553 51.1531 32.7608 54.0686 34.9074 56.2229C37.054 58.3771 39.9651 59.5954 43.0062 59.612L52.1562 59.646C51.6032 65.611 48.8782 74.871 40.1642 88.017C31.7272 101.583 27.3726 117.29 27.6202 133.263C27.6589 135.988 28.7713 138.587 30.7156 140.497C32.66 142.406 35.2792 143.471 38.0042 143.46H48.5592C51.2992 143.46 52.1592 140.522 52.0322 139.526C51.2297 128.814 52.6711 118.053 56.2642 107.93C60.3833 96.0257 67.662 85.4656 77.3212 77.38C70.7502 93.986 70.0032 110.664 70.2742 120.198C70.3376 122.812 71.4243 125.297 73.3007 127.119C75.1771 128.94 77.6933 129.952 80.3082 129.938H89.6482C93.4802 129.938 93.2232 127.104 93.1352 126.125C89.7812 88.772 108.335 74.754 118.342 69.968C123.994 74.146 125.449 83.823 125.449 83.823C126.07 92.031 127.985 99.151 131.158 104.979C131.181 105.022 131.21 105.058 131.234 105.099C131.258 105.14 131.257 105.154 131.272 105.181C139.119 119.387 152.261 122.611 159.402 123.267H159.413C160.761 123.399 162.116 123.441 163.469 123.392C163.687 123.402 164.033 123.413 164.489 123.413C173.075 123.37 181.375 120.322 187.948 114.799C195.91 107.899 200.461 97.472 201.49 83.813C201.49 83.813 203.018 74.622 208.595 69.966C218.595 74.751 237.156 88.766 233.803 126.123C233.76 126.607 233.818 127.095 233.973 127.555C234.128 128.016 234.378 128.439 234.706 128.798C235.034 129.156 235.433 129.443 235.878 129.639C236.323 129.835 236.803 129.936 237.289 129.936H246.63C249.245 129.95 251.761 128.938 253.637 127.116C255.513 125.295 256.6 122.81 256.663 120.196C256.934 110.674 256.19 93.99 249.617 77.379C259.279 85.4657 266.559 96.0285 270.677 107.936C274.269 118.055 275.709 128.812 274.905 139.519C274.843 140.012 274.887 140.512 275.033 140.987C275.179 141.461 275.424 141.9 275.753 142.272C276.081 142.645 276.485 142.943 276.938 143.147C277.391 143.351 277.882 143.457 278.378 143.457H288.933C291.658 143.468 294.277 142.403 296.221 140.494C298.165 138.585 299.278 135.986 299.317 133.262C299.565 117.307 295.22 101.617 286.8 88.062C278.07 74.891 275.336 65.632 274.783 59.65L283.932 59.616C286.973 59.5991 289.884 58.3808 292.031 56.2266C294.177 54.0724 295.385 51.1571 295.391 48.116V40.816C295.391 39.8877 295.022 38.9975 294.366 38.3411C293.71 37.6848 292.819 37.316 291.891 37.316H284.41V22.651H323.469C327.633 22.651 327.149 18.938 326.722 17.86C326.433 17.131 319.422 0 300.487 0C293.325 0 286.334 2.636 279.687 7.825H223.187C222.028 7.825 218.687 9.18101 219.934 12.616C220.202 13.353 227.234 30.476 246.169 30.476C251.762 30.4222 257.245 28.9197 262.084 26.115V37.315H220.771C216.261 35.315 191.918 25.115 163.471 25.115C135.024 25.115 110.679 35.309 106.171 37.315H64.6852V22.651H103.744ZM49.3652 37.315V14.83H57.6852V37.32L49.3652 37.315ZM164.821 116.421C165.719 112.679 165.432 108.751 164.002 105.178C162.572 101.605 160.068 98.565 156.836 96.4761C153.604 94.3873 149.803 93.3531 145.959 93.5162C142.114 93.6794 138.415 95.0319 135.371 97.387C134.092 93.925 133.222 90.3252 132.779 86.661H194.16C190.524 114.494 169.891 116.386 164.821 116.421ZM269.09 14.83H277.41V37.32H269.09V14.83ZM268.58 65.09C270.03 71.759 273.494 80.66 280.992 91.972C288.565 104.345 292.491 118.605 292.319 133.111C292.31 134.003 291.95 134.856 291.316 135.484C290.682 136.112 289.826 136.465 288.933 136.465H282.122C282.398 126.078 280.792 115.726 277.382 105.911C272.01 90.4706 261.899 77.1205 248.493 67.764L268.58 65.09ZM74.3532 44.315H106.719C115.41 45.2877 123.694 48.5166 130.751 53.681C137.631 58.781 150.551 61.33 163.469 61.33C176.387 61.33 189.307 58.78 196.186 53.681C203.243 48.5164 211.528 45.2876 220.219 44.315H252.584V52.715H231.228C203.656 52.715 195.416 79.659 195.416 79.659H131.516C131.516 79.659 127.016 52.715 95.7042 52.715H74.3532V44.315ZM79.0042 67.371C65.3315 76.743 55.0152 90.2428 49.5632 105.897C46.1507 115.715 44.5438 126.07 44.8202 136.46H38.0042C37.1117 136.46 36.2553 136.107 35.6211 135.479C34.9869 134.851 34.6262 133.998 34.6172 133.106C34.4706 118.588 38.405 104.321 45.9722 91.93C53.9022 79.966 57.3082 70.695 58.5932 63.93V63.955L79.0042 67.371Z" fill="black"/>
</svg>
